<svg width="18" height="16" viewBox="0 0 18 16" fill="none" xmlns="http://www.w3.org/2000/svg">
<rect width="18" height="16" fill="#1E1E1E"/>
<g clip-path="url(#clip0_0_1)">
<rect width="1366" height="768" transform="translate(-1093 -354)" fill="#F9F9FC"/>
<g filter="url(#filter0_d_0_1)">
<rect x="-1037" y="-22" width="1257" height="94" rx="10" fill="white"/>
<rect x="-1036.5" y="-21.5" width="1256" height="93" rx="9.5" stroke="#222426"/>
</g>
<mask id="path-3-outside-1_0_1" maskUnits="userSpaceOnUse" x="0" y="-0.0953369" width="18" height="16" fill="black">
<rect fill="white" y="-0.0953369" width="18" height="16"/>
<path d="M16.7224 3.59839C16.3562 2.5762 15.655 1.77861 14.7484 1.35164C14.1287 1.05884 13.4334 0.904663 12.7366 0.904663C11.1919 0.904663 9.76198 1.64814 9.09336 2.79783L8.99403 2.96758L8.90731 2.81933C8.23944 1.66742 6.80881 0.923936 5.26329 0.923936C4.56725 0.923936 3.87195 1.07812 3.253 1.37017C2.34644 1.79714 1.64521 2.59473 1.27829 3.61618C0.852067 4.80368 0.91878 6.19057 1.45545 7.32617C2.69557 9.94652 8.56781 15.1034 8.81687 15.3221C8.86283 15.3629 8.92732 15.3792 8.98959 15.3792C9.00219 15.3792 9.01479 15.3784 9.02739 15.377C9.08669 15.371 9.14673 15.3384 9.19121 15.2954C9.53515 14.9937 15.3147 9.90278 16.5437 7.30468C17.0812 6.17055 17.1479 4.78514 16.7224 3.59839ZM16.0619 7.07563C14.9782 9.36611 9.94729 13.9085 8.98959 14.761C7.97851 13.8604 3.01357 9.36982 1.93875 7.09787C1.46064 6.08753 1.40134 4.85334 1.78086 3.79631C2.0996 2.90976 2.70299 2.21965 3.48056 1.85347C4.02909 1.59477 4.64582 1.45764 5.26329 1.45764C6.62201 1.45764 7.87103 2.09735 8.44625 3.08841L8.76276 3.6273C8.80872 3.70587 8.89174 3.75554 8.98292 3.75924C9.07409 3.76295 9.16082 3.71922 9.21271 3.64435C9.21641 3.63916 9.23494 3.61173 9.23865 3.6058L9.55443 3.06691C10.1296 2.07807 11.3787 1.43837 12.7366 1.43837C13.3549 1.43837 13.9716 1.5755 14.5208 1.8342C15.2984 2.20038 15.9018 2.89049 16.2198 3.77852C16.5986 4.83481 16.5393 6.06752 16.0619 7.07563Z"/>
</mask>
<path d="M16.7224 3.59839C16.3562 2.5762 15.655 1.77861 14.7484 1.35164C14.1287 1.05884 13.4334 0.904663 12.7366 0.904663C11.1919 0.904663 9.76198 1.64814 9.09336 2.79783L8.99403 2.96758L8.90731 2.81933C8.23944 1.66742 6.80881 0.923936 5.26329 0.923936C4.56725 0.923936 3.87195 1.07812 3.253 1.37017C2.34644 1.79714 1.64521 2.59473 1.27829 3.61618C0.852067 4.80368 0.91878 6.19057 1.45545 7.32617C2.69557 9.94652 8.56781 15.1034 8.81687 15.3221C8.86283 15.3629 8.92732 15.3792 8.98959 15.3792C9.00219 15.3792 9.01479 15.3784 9.02739 15.377C9.08669 15.371 9.14673 15.3384 9.19121 15.2954C9.53515 14.9937 15.3147 9.90278 16.5437 7.30468C17.0812 6.17055 17.1479 4.78514 16.7224 3.59839ZM16.0619 7.07563C14.9782 9.36611 9.94729 13.9085 8.98959 14.761C7.97851 13.8604 3.01357 9.36982 1.93875 7.09787C1.46064 6.08753 1.40134 4.85334 1.78086 3.79631C2.0996 2.90976 2.70299 2.21965 3.48056 1.85347C4.02909 1.59477 4.64582 1.45764 5.26329 1.45764C6.62201 1.45764 7.87103 2.09735 8.44625 3.08841L8.76276 3.6273C8.80872 3.70587 8.89174 3.75554 8.98292 3.75924C9.07409 3.76295 9.16082 3.71922 9.21271 3.64435C9.21641 3.63916 9.23494 3.61173 9.23865 3.6058L9.55443 3.06691C10.1296 2.07807 11.3787 1.43837 12.7366 1.43837C13.3549 1.43837 13.9716 1.5755 14.5208 1.8342C15.2984 2.20038 15.9018 2.89049 16.2198 3.77852C16.5986 4.83481 16.5393 6.06752 16.0619 7.07563Z" fill="#FF3800"/>
<path d="M16.7224 3.59839C16.3562 2.5762 15.655 1.77861 14.7484 1.35164C14.1287 1.05884 13.4334 0.904663 12.7366 0.904663C11.1919 0.904663 9.76198 1.64814 9.09336 2.79783L8.99403 2.96758L8.90731 2.81933C8.23944 1.66742 6.80881 0.923936 5.26329 0.923936C4.56725 0.923936 3.87195 1.07812 3.253 1.37017C2.34644 1.79714 1.64521 2.59473 1.27829 3.61618C0.852067 4.80368 0.91878 6.19057 1.45545 7.32617C2.69557 9.94652 8.56781 15.1034 8.81687 15.3221C8.86283 15.3629 8.92732 15.3792 8.98959 15.3792C9.00219 15.3792 9.01479 15.3784 9.02739 15.377C9.08669 15.371 9.14673 15.3384 9.19121 15.2954C9.53515 14.9937 15.3147 9.90278 16.5437 7.30468C17.0812 6.17055 17.1479 4.78514 16.7224 3.59839ZM16.0619 7.07563C14.9782 9.36611 9.94729 13.9085 8.98959 14.761C7.97851 13.8604 3.01357 9.36982 1.93875 7.09787C1.46064 6.08753 1.40134 4.85334 1.78086 3.79631C2.0996 2.90976 2.70299 2.21965 3.48056 1.85347C4.02909 1.59477 4.64582 1.45764 5.26329 1.45764C6.62201 1.45764 7.87103 2.09735 8.44625 3.08841L8.76276 3.6273C8.80872 3.70587 8.89174 3.75554 8.98292 3.75924C9.07409 3.76295 9.16082 3.71922 9.21271 3.64435C9.21641 3.63916 9.23494 3.61173 9.23865 3.6058L9.55443 3.06691C10.1296 2.07807 11.3787 1.43837 12.7366 1.43837C13.3549 1.43837 13.9716 1.5755 14.5208 1.8342C15.2984 2.20038 15.9018 2.89049 16.2198 3.77852C16.5986 4.83481 16.5393 6.06752 16.0619 7.07563Z" stroke="#FF3800" stroke-width="0.4" mask="url(#path-3-outside-1_0_1)"/>
</g>
<defs>
<filter id="filter0_d_0_1" x="-1045" y="-28" width="1273" height="110" filterUnits="userSpaceOnUse" color-interpolation-filters="sRGB">
<feFlood flood-opacity="0" result="BackgroundImageFix"/>
<feColorMatrix in="SourceAlpha" type="matrix" values="0 0 0 0 0 0 0 0 0 0 0 0 0 0 0 0 0 0 127 0" result="hardAlpha"/>
<feOffset dy="2"/>
<feGaussianBlur stdDeviation="4"/>
<feColorMatrix type="matrix" values="0 0 0 0 0.0875174 0 0 0 0 0.125393 0 0 0 0 0.295833 0 0 0 0.19 0"/>
<feBlend mode="multiply" in2="BackgroundImageFix" result="effect1_dropShadow_0_1"/>
<feBlend mode="normal" in="SourceGraphic" in2="effect1_dropShadow_0_1" result="shape"/>
</filter>
<clipPath id="clip0_0_1">
<rect width="1366" height="768" fill="white" transform="translate(-1093 -354)"/>
</clipPath>
</defs>
</svg>
