<svg width="22" height="16" viewBox="0 0 22 16" fill="none" xmlns="http://www.w3.org/2000/svg">
<path d="M20 2.375C20.2071 2.375 20.375 2.20711 20.375 2C20.375 1.79289 20.2071 1.625 20 1.625C19.7929 1.625 19.625 1.79289 19.625 2C19.625 2.20711 19.7929 2.375 20 2.375Z" fill="white"/>
<path d="M18.5 2.375C18.7071 2.375 18.875 2.20711 18.875 2C18.875 1.79289 18.7071 1.625 18.5 1.625C18.2929 1.625 18.125 1.79289 18.125 2C18.125 2.20711 18.2929 2.375 18.5 2.375Z" fill="white"/>
<path d="M17 2.375C17.2071 2.375 17.375 2.20711 17.375 2C17.375 1.79289 17.2071 1.625 17 1.625C16.7929 1.625 16.625 1.79289 16.625 2C16.625 2.20711 16.7929 2.375 17 2.375Z" fill="white"/>
<path fill-rule="evenodd" clip-rule="evenodd" d="M1.25 15.875H20.75C21.3714 15.875 21.875 15.3714 21.875 14.75V1.25C21.875 0.628625 21.3714 0.125 20.75 0.125H1.25C0.628625 0.125 0.125 0.628625 0.125 1.25V14.75C0.125 15.3714 0.628625 15.875 1.25 15.875ZM21.125 3.875V14.75C21.125 14.957 20.957 15.125 20.75 15.125H1.25C1.043 15.125 0.875 14.957 0.875 14.75V3.875H21.125ZM21.125 3.125H0.875V1.25C0.875 1.043 1.043 0.875 1.25 0.875H20.75C20.957 0.875 21.125 1.043 21.125 1.25V3.125Z" fill="white"/>
<path fill-rule="evenodd" clip-rule="evenodd" d="M7.61863 8.77172L6.71788 9.18722C6.58438 9.24872 6.49925 9.3826 6.5 9.5296C6.50075 9.6766 6.58738 9.80972 6.72163 9.86972L7.61863 10.2717L6.71788 10.6872C6.58438 10.7487 6.49925 10.8826 6.5 11.0296C6.50075 11.1766 6.58738 11.3097 6.72163 11.3697L10.8466 13.2173C10.9441 13.2608 11.0559 13.2608 11.1534 13.2173L15.2784 11.3697C15.4126 11.3097 15.4993 11.1766 15.5 11.0296C15.5008 10.8826 15.4156 10.7487 15.2821 10.6872L14.3814 10.2717L15.2784 9.86972C15.4126 9.80972 15.4993 9.6766 15.5 9.5296C15.5008 9.3826 15.4156 9.24872 15.2821 9.18722L14.3814 8.77172L15.2784 8.36972C15.4126 8.30972 15.4993 8.1766 15.5 8.0296C15.5008 7.8826 15.4156 7.74872 15.2821 7.68722L11.1571 5.78447C11.0574 5.73835 10.9426 5.73835 10.8429 5.78447L6.71788 7.68722C6.58438 7.74872 6.49925 7.8826 6.5 8.0296C6.50075 8.1766 6.58738 8.30972 6.72163 8.36972L7.61863 8.77172ZM8.52725 10.6786L7.78138 11.0225L11 12.464L14.2186 11.0225L13.4728 10.6786L11.1534 11.7173C11.0559 11.7608 10.9441 11.7608 10.8466 11.7173L8.52725 10.6786ZM8.52725 9.1786L7.78138 9.52247L11 10.964L14.2186 9.52247L13.4728 9.1786L11.1534 10.2173C11.0559 10.2608 10.9441 10.2608 10.8466 10.2173L8.52725 9.1786ZM14.2186 8.02247L11 9.46397L7.78138 8.02247L11 6.53785L14.2186 8.02247Z" fill="white"/>
</svg>
