<svg width="30" height="30" viewBox="0 0 30 30" fill="none" xmlns="http://www.w3.org/2000/svg">
<rect x="0.5" y="0.5" width="29" height="29" rx="7.5" stroke="#222426"/>
<path d="M6.60492 8.58022H8.15654C8.26421 9.00382 8.50998 9.37946 8.85501 9.64775C9.20004 9.91605 9.62464 10.0617 10.0617 10.0617C10.4988 10.0617 10.9234 9.91605 11.2684 9.64775C11.6134 9.37946 11.8592 9.00382 11.9669 8.58022H23.395C23.46 8.58044 23.5244 8.56783 23.5845 8.54311C23.6446 8.51839 23.6993 8.48205 23.7453 8.43617C23.7913 8.3903 23.8279 8.33578 23.8528 8.27576C23.8777 8.21574 23.8905 8.15139 23.8905 8.0864C23.8905 8.02141 23.8777 7.95706 23.8528 7.89704C23.8279 7.83701 23.7913 7.7825 23.7453 7.73662C23.6993 7.69075 23.6446 7.65441 23.5845 7.62969C23.5244 7.60497 23.46 7.59236 23.395 7.59257H11.9669C11.8592 7.16898 11.6134 6.79334 11.2684 6.52504C10.9234 6.25674 10.4988 6.11108 10.0617 6.11108C9.62464 6.11108 9.20004 6.25674 8.85501 6.52504C8.50998 6.79334 8.26421 7.16898 8.15654 7.59257H6.60492C6.53993 7.59236 6.47554 7.60497 6.41543 7.62969C6.35533 7.65441 6.30069 7.69075 6.25466 7.73662C6.20863 7.7825 6.17211 7.83701 6.14719 7.89704C6.12226 7.95706 6.10944 8.02141 6.10944 8.0864C6.10944 8.15139 6.12226 8.21574 6.14719 8.27576C6.17211 8.33578 6.20863 8.3903 6.25466 8.43617C6.30069 8.48205 6.35533 8.51839 6.41543 8.54311C6.47554 8.56783 6.53993 8.58044 6.60492 8.58022V8.58022ZM10.0617 7.09875C10.257 7.09875 10.448 7.15667 10.6104 7.2652C10.7728 7.37372 10.8994 7.52797 10.9742 7.70844C11.0489 7.88891 11.0685 8.0875 11.0304 8.27908C10.9923 8.47067 10.8982 8.64665 10.7601 8.78478C10.622 8.92291 10.446 9.01697 10.2544 9.05508C10.0628 9.09319 9.86422 9.07363 9.68375 8.99888C9.50328 8.92412 9.34903 8.79753 9.2405 8.63511C9.13198 8.47269 9.07405 8.28174 9.07405 8.0864C9.07431 7.82454 9.17845 7.57347 9.36362 7.38831C9.54878 7.20314 9.79985 7.099 10.0617 7.09875Z" fill="#222426"/>
<path d="M23.395 14.5061H21.8434C21.7357 14.0825 21.49 13.7069 21.1449 13.4386C20.7999 13.1703 20.3753 13.0247 19.9382 13.0247C19.5012 13.0247 19.0766 13.1703 18.7315 13.4386C18.3865 13.7069 18.1407 14.0825 18.0331 14.5061H6.60491C6.47394 14.5061 6.34833 14.5582 6.25572 14.6508C6.16311 14.7434 6.11108 14.869 6.11108 15C6.11108 15.1309 6.16311 15.2566 6.25572 15.3492C6.34833 15.4418 6.47394 15.4938 6.60491 15.4938H18.0331C18.1407 15.9174 18.3865 16.293 18.7315 16.5613C19.0766 16.8296 19.5012 16.9753 19.9382 16.9753C20.3753 16.9753 20.7999 16.8296 21.1449 16.5613C21.49 16.293 21.7357 15.9174 21.8434 15.4938H23.395C23.526 15.4938 23.6516 15.4418 23.7442 15.3492C23.8368 15.2566 23.8889 15.1309 23.8889 15C23.8889 14.869 23.8368 14.7434 23.7442 14.6508C23.6516 14.5582 23.526 14.5061 23.395 14.5061V14.5061ZM19.9382 15.9876C19.7429 15.9876 19.552 15.9297 19.3895 15.8212C19.2271 15.7127 19.1005 15.5584 19.0258 15.3779C18.951 15.1975 18.9315 14.9989 18.9696 14.8073C19.0077 14.6157 19.1017 14.4397 19.2399 14.3016C19.378 14.1635 19.554 14.0694 19.7456 14.0313C19.9372 13.9932 20.1357 14.0127 20.3162 14.0875C20.4967 14.1623 20.6509 14.2888 20.7595 14.4513C20.868 14.6137 20.9259 14.8046 20.9259 15C20.9256 15.2618 20.8215 15.5129 20.6363 15.6981C20.4512 15.8832 20.2001 15.9874 19.9382 15.9876Z" fill="#222426"/>
<path d="M23.395 21.4198H11.9669C11.8592 20.9962 11.6134 20.6206 11.2684 20.3523C10.9234 20.084 10.4988 19.9383 10.0617 19.9383C9.62464 19.9383 9.20004 20.084 8.85501 20.3523C8.50998 20.6206 8.26421 20.9962 8.15654 21.4198H6.60492C6.53993 21.4196 6.47554 21.4322 6.41543 21.4569C6.35533 21.4816 6.30069 21.518 6.25466 21.5638C6.20863 21.6097 6.17211 21.6642 6.14719 21.7242C6.12226 21.7843 6.10944 21.8486 6.10944 21.9136C6.10944 21.9786 6.12226 22.0429 6.14719 22.103C6.17211 22.163 6.20863 22.2175 6.25466 22.2634C6.30069 22.3093 6.35533 22.3456 6.41543 22.3703C6.47554 22.395 6.53993 22.4077 6.60492 22.4074H8.15654C8.26421 22.831 8.50998 23.2067 8.85501 23.475C9.20004 23.7433 9.62464 23.8889 10.0617 23.8889C10.4988 23.8889 10.9234 23.7433 11.2684 23.475C11.6134 23.2067 11.8592 22.831 11.9669 22.4074H23.395C23.46 22.4077 23.5244 22.395 23.5845 22.3703C23.6446 22.3456 23.6993 22.3093 23.7453 22.2634C23.7913 22.2175 23.8279 22.163 23.8528 22.103C23.8777 22.0429 23.8905 21.9786 23.8905 21.9136C23.8905 21.8486 23.8777 21.7843 23.8528 21.7242C23.8279 21.6642 23.7913 21.6097 23.7453 21.5638C23.6993 21.518 23.6446 21.4816 23.5845 21.4569C23.5244 21.4322 23.46 21.4196 23.395 21.4198V21.4198ZM10.0617 22.9013C9.86637 22.9013 9.67542 22.8433 9.513 22.7348C9.35058 22.6263 9.22399 22.472 9.14923 22.2916C9.07448 22.1111 9.05492 21.9125 9.09303 21.7209C9.13114 21.5293 9.2252 21.3534 9.36333 21.2152C9.50146 21.0771 9.67744 20.983 9.86903 20.9449C10.0606 20.9068 10.2592 20.9264 10.4397 21.0011C10.6201 21.0759 10.7744 21.2025 10.8829 21.3649C10.9914 21.5273 11.0494 21.7183 11.0494 21.9136C11.0491 22.1755 10.945 22.4265 10.7598 22.6117C10.5746 22.7969 10.3236 22.901 10.0617 22.9013V22.9013Z" fill="#222426"/>
</svg>
