<svg width="10" height="12" viewBox="0 0 10 12" fill="none" xmlns="http://www.w3.org/2000/svg">
<path fill-rule="evenodd" clip-rule="evenodd" d="M4.99999 6.91859C4.61026 6.91859 4.22928 6.80303 3.90523 6.5865C3.58118 6.36998 3.32861 6.06222 3.17946 5.70216C3.03032 5.34209 2.9913 4.94588 3.06733 4.56364C3.14336 4.18139 3.33104 3.83028 3.60662 3.5547C3.8822 3.27911 4.23332 3.09144 4.61556 3.01541C4.99781 2.93937 5.39401 2.9784 5.75408 3.12754C6.11415 3.27668 6.4219 3.52925 6.63843 3.8533C6.85495 4.17735 6.97052 4.55834 6.97052 4.94807C6.96982 5.47047 6.76198 5.97127 6.39259 6.34067C6.0232 6.71006 5.52239 6.91789 4.99999 6.91859ZM4.99999 2.60946C4.53753 2.60943 4.08544 2.74655 3.70091 3.00346C3.31637 3.26037 3.01665 3.62555 2.83966 4.0528C2.66266 4.48005 2.61634 4.9502 2.70655 5.40378C2.79676 5.85736 3.01944 6.274 3.34644 6.60102C3.67345 6.92804 4.09008 7.15075 4.54365 7.24098C4.99723 7.33121 5.46738 7.28492 5.89464 7.10795C6.3219 6.93097 6.68709 6.63128 6.94403 6.24675C7.20096 5.86223 7.3381 5.41015 7.3381 4.94769C7.33743 4.32778 7.09088 3.73345 6.65255 3.29509C6.21422 2.85674 5.6199 2.61016 4.99999 2.60946ZM7.929 8.66605C8.94105 7.3607 9.45414 6.10967 9.45414 4.94769C9.45414 3.76638 8.98487 2.63345 8.14955 1.79813C7.31424 0.962818 6.18131 0.493543 4.99999 0.493543C3.81868 0.493543 2.68575 0.962818 1.85044 1.79813C1.01512 2.63345 0.545846 3.76638 0.545846 4.94769C0.545846 6.10979 1.05894 7.36032 2.07098 8.66605C2.91728 9.7258 3.90247 10.6667 4.99999 11.4634C6.09754 10.6668 7.08274 9.72583 7.929 8.66605ZM4.99999 0.126343C3.72176 0.127814 2.49629 0.636252 1.59246 1.54011C0.688616 2.44398 0.18021 3.66945 0.178772 4.94769C0.178772 6.19304 0.717761 7.51973 1.78084 8.89102C2.67723 10.0127 3.72456 11.0049 4.893 11.8394C4.92429 11.8618 4.96184 11.8739 5.00037 11.8739C5.0389 11.8739 5.07646 11.8618 5.10774 11.8394C6.27589 11.0048 7.32295 10.0126 8.21915 8.89102C9.2821 7.51973 9.82121 6.19304 9.82121 4.94769C9.81978 3.66945 9.31137 2.44398 8.40753 1.54011C7.50369 0.636252 6.27823 0.127814 4.99999 0.126343Z" fill="#222426"/>
</svg>
