<svg width="24" height="24" viewBox="0 0 24 24" fill="none" xmlns="http://www.w3.org/2000/svg">
<g filter="url(#filter0_d_633_302)">
<g clip-path="url(#clip0_633_302)">
<path d="M16.2592 15.8285C14.7067 18.9335 11.9881 21.0227 8.39143 21.7095C7.83997 21.8416 7.27385 21.9063 6.7061 21.9018C4.6361 21.9018 2.7386 21.0581 1.81745 19.676C0.580628 17.835 0.159728 13.9318 4.23763 11.0445C4.32043 11.4849 4.48948 12.089 4.6016 12.4468C3.80109 13.0286 3.14584 13.7804 2.68513 14.6456C1.92613 16.1036 2.01065 17.5599 2.90938 18.9065C3.53038 19.8144 4.51363 20.3662 5.77805 20.535C7.35735 20.7305 8.95953 20.4353 10.3579 19.6912C12.5504 18.564 14.0115 17.2173 14.9671 15.3763C14.6969 15.1031 14.537 14.7434 14.5169 14.3638C14.5025 13.9564 14.6538 13.56 14.9378 13.2617C15.2217 12.9634 15.615 12.7874 16.0315 12.7725H16.0901C16.4951 12.7705 16.8854 12.9209 17.1803 13.1926C17.4751 13.4642 17.6519 13.8364 17.674 14.232C17.6962 14.6277 17.562 15.0165 17.2993 15.318C17.0366 15.6196 16.6654 15.8108 16.2626 15.8522L16.2592 15.8285ZM21.2047 12.4198C23.311 14.7553 23.3679 17.5042 22.5537 19.0989C21.7947 20.5552 19.7937 22.0132 17.1027 22.0132C15.8465 21.9881 14.6107 21.6974 13.4802 21.161C13.8752 20.886 14.4358 20.4455 14.7446 20.1705C15.6164 20.5399 16.5546 20.7361 17.5046 20.7476C19.2469 20.7476 20.5665 19.9511 21.3531 18.4948C21.8585 17.5329 21.8878 16.4057 21.41 15.2514C20.8237 13.7991 19.7804 12.5669 18.4309 11.733C16.6605 10.5655 14.5734 9.94306 12.4383 9.9459H11.9329C11.815 10.2122 11.6233 10.441 11.3794 10.6062C11.1355 10.7714 10.8492 10.8665 10.5529 10.8808H10.4994C10.0895 10.8758 9.69782 10.7148 9.4074 10.4319C9.11699 10.149 8.95076 9.76643 8.94402 9.36553C8.93729 8.96463 9.09057 8.57695 9.37133 8.28484C9.65208 7.99273 10.0382 7.81919 10.4476 7.80109H10.5046C10.7899 7.8013 11.0696 7.87842 11.3131 8.024C11.5565 8.16957 11.7543 8.37796 11.8846 8.62628H12.3348C15.9228 8.62628 19.0726 9.9729 21.2047 12.4198ZM6.93035 16.301C6.90081 16.0208 6.97021 15.7391 7.127 15.5028C5.5538 12.8366 4.712 9.45653 6.00403 5.93809C6.93035 3.29378 9.26255 1.50671 11.7914 1.50671C14.4893 1.50671 17.2993 3.8169 17.6357 8.26853C17.2148 8.13184 16.6007 7.93103 16.2316 7.85678C16.1401 6.40046 14.8826 2.77234 11.9035 2.82634C10.8358 2.85503 9.26255 3.34946 8.45353 4.36534C7.45279 5.57801 6.87063 7.06972 6.79063 8.62628C6.601 10.7606 7.11288 12.8984 8.2517 14.7283C8.31457 14.7058 8.38159 14.6966 8.44835 14.7013H8.50355C8.92079 14.6939 9.32394 14.849 9.62431 15.1324C9.92468 15.4157 10.0977 15.8043 10.1052 16.2124C10.1128 16.6206 9.95426 17.015 9.66456 17.3088C9.37487 17.6027 8.97772 17.7719 8.56048 17.7793H8.50355C8.09651 17.7779 7.70572 17.6228 7.41264 17.3465C7.11955 17.0702 6.94679 16.6938 6.93035 16.296V16.301Z" fill="#222426"/>
</g>
</g>
<defs>
<filter id="filter0_d_633_302" x="-79.0399" y="-59.0401" width="182.08" height="181.6" filterUnits="userSpaceOnUse" color-interpolation-filters="sRGB">
<feFlood flood-opacity="0" result="BackgroundImageFix"/>
<feColorMatrix in="SourceAlpha" type="matrix" values="0 0 0 0 0 0 0 0 0 0 0 0 0 0 0 0 0 0 127 0" result="hardAlpha"/>
<feOffset dy="20"/>
<feGaussianBlur stdDeviation="40"/>
<feColorMatrix type="matrix" values="0 0 0 0 0 0 0 0 0 0 0 0 0 0 0 0 0 0 0.1 0"/>
<feBlend mode="normal" in2="BackgroundImageFix" result="effect1_dropShadow_633_302"/>
<feBlend mode="normal" in="SourceGraphic" in2="effect1_dropShadow_633_302" result="shape"/>
</filter>
<clipPath id="clip0_633_302">
<rect width="22.08" height="21.6" fill="white" transform="translate(0.960114 0.9599)"/>
</clipPath>
</defs>
</svg>
