<svg width="24" height="24" viewBox="0 0 24 24" fill="none" xmlns="http://www.w3.org/2000/svg">
<path d="M23.3882 10.9459L13.054 0.611993C12.4592 0.0168682 11.4939 0.0168682 10.8983 0.611993L8.75251 2.75812L11.4746 5.48024C12.1075 5.26668 12.8327 5.40993 13.3369 5.91412C13.8437 6.42149 13.9858 7.15293 13.767 7.78781L16.3905 10.4115C17.0252 10.1927 17.7578 10.3341 18.2644 10.8418C18.9731 11.55 18.9731 12.6981 18.2644 13.4066C17.5556 14.1154 16.4079 14.1154 15.6988 13.4066C15.1659 12.8734 15.0341 12.0906 15.3041 11.4339L12.8576 8.98743L12.8573 15.4264C13.0301 15.5117 13.1931 15.6257 13.3371 15.7691C14.0454 16.4773 14.0454 17.625 13.3371 18.3347C12.6285 19.0429 11.4801 19.0429 10.7723 18.3347C10.0639 17.6252 10.0639 16.4775 10.7723 15.7691C10.9474 15.5942 11.1499 15.462 11.3661 15.3735V8.87493C11.1499 8.78643 10.9478 8.65518 10.7723 8.47912C10.2356 7.94287 10.1065 7.15537 10.3817 6.49612L7.69801 3.81243L0.612012 10.8981C0.0166992 11.4937 0.0166992 12.459 0.612012 13.0543L10.9465 23.3882C11.5416 23.9833 12.5064 23.9833 13.1025 23.3882L23.3884 13.1023C23.9835 12.5068 23.9835 11.541 23.3882 10.9459Z" fill="#222426"/>
</svg>
